<svg width="202" height="161" viewBox="0 0 202 161" fill="none" xmlns="http://www.w3.org/2000/svg">
<path d="M139 127.316C162.914 127.316 169.114 104.521 169.114 94C169.114 121.179 189.781 127.024 201 127.316C176.909 127.316 170.886 150.988 170 160.632C170 136.083 149.629 128.485 139 127.316Z" stroke="black" stroke-width="3"/>
<path d="M78.2516 61.9207L85.8679 1L93.4843 61.9207L119.597 45.2166L103.277 71.7466L174 76.6595L103.277 83.5377L119.597 108.102L93.4843 93.3636L85.8679 159.197L78.2516 93.3636L51.0503 108.102L69.5472 83.5377L1 76.6595L69.5472 71.7466L51.0503 45.2166L78.2516 61.9207Z" stroke="black" stroke-width="3"/>
</svg>
