<svg width="64" height="66" viewBox="0 0 64 66" fill="none" xmlns="http://www.w3.org/2000/svg">
<path fill-rule="evenodd" clip-rule="evenodd" d="M20.5454 9.858L20.7713 9.84795C22.1138 23.636 30.3481 34.2768 40.4296 35.2514L40.4365 35.5626C29.9331 37.5215 21.9315 49.905 21.8986 64.6977L21.8739 64.6988C21.1472 49.2563 11.8336 37.2204 0.591579 37.1957L0.590809 37.1613C11.3136 36.1832 19.7872 24.4104 20.5454 9.858Z" fill="#F5B819"/>
<path fill-rule="evenodd" clip-rule="evenodd" d="M49.2256 0.621573C50.1833 9.54909 56.1982 16.4116 63.5853 17.0048L63.5898 17.2064C55.8878 18.5153 49.9996 26.5683 49.9473 36.1519L49.9292 36.1527C49.426 26.151 42.6228 18.3887 34.3832 18.4153L34.3827 18.393C42.2436 17.7187 48.4766 10.0596 49.06 0.628936L49.2256 0.621573Z" fill="#F5B819"/>
</svg>
